<?xml version="1.0" encoding="UTF-8" standalone="no"?>
<svg width="550px" height="550px" viewBox="0 0 550 550" version="1.1" xmlns="http://www.w3.org/2000/svg" xmlns:xlink="http://www.w3.org/1999/xlink" xmlns:sketch="http://www.bohemiancoding.com/sketch/ns">
    <!-- Generator: Sketch 3.3.3 (12072) - http://www.bohemiancoding.com/sketch -->
    <title>avatar</title>
    <desc>Created with Sketch.</desc>
    <defs>
        <path id="path-1" d="M84.6992188,473.105469 C101.977224,492.801454 122.780214,514.94072 144.314987,523.65332 C161.143884,530.462003 178.378135,529.570801 195,529.570801 C212.713949,529.570801 226.202984,530.688207 244.049713,523.65332 C265.959926,515.016676 291.925475,492.835775 309.586975,473.105469 C360.965263,415.708907 392.101654,316.425909 392.101654,226.972229 C392.101654,162.240243 379.120583,134.300278 351.691406,88.4804688 C317.572769,31.4860558 251.944933,0 195,0 C138.890998,1.1425645e-05 76.0599396,32.9279945 41.9570312,88.4804688 C13.6239698,134.634071 0.937500132,152.980556 0.9375,218.894531 C0.937500083,310.567358 32.0336221,413.069557 84.6992188,473.105469 Z"></path>
        <path id="path-2" d="M43.7989589,11.627998 C71.7924484,-2.70050304 153.260979,6.34012687 160.309288,19.0473075 C170.649597,40.7136667 151.327523,84.4893168 135.528122,85.3311899 C94.0380598,95.9153291 63.4696593,86.0545973 57.0806962,83.4422521 C56.8546335,83.3498187 56.658843,83.2664601 56.4939119,83.1934031 C44.4773362,77.444639 26.5481472,32.0937804 43.7989589,11.627998 Z"></path>
        <path id="path-3" d="M43.7989589,11.627998 C71.7924484,-2.70050304 153.260979,6.34012687 160.309288,19.0473075 C170.649597,40.7136667 151.327523,84.4893168 135.528122,85.3311899 C94.0380598,95.9153291 63.4696593,86.0545973 57.0806962,83.4422521 C56.8546335,83.3498187 56.658843,83.2664601 56.4939119,83.1934031 C44.4773362,77.444639 26.5481472,32.0937804 43.7989589,11.627998 Z"></path>
    </defs>
    <g id="Page-1" stroke="none" stroke-width="1" fill="none" fill-rule="evenodd" sketch:type="MSPage">
        <rect id="Background" stroke="#A8A8A8" fill="#AEC292" sketch:type="MSShapeGroup" x="-95" y="-162" width="754" height="799"></rect>
        <rect id="Neck" stroke="#FCE8DC" stroke-width="14" fill="#F9D0BC" sketch:type="MSShapeGroup" x="202" y="426" width="139" height="82"></rect>
        <path d="M344.884515,459 L361,459 L361,551 L166,551 L166,459 L202.115485,459 C220.196576,475.652948 245.497388,486 273.5,486 C301.502612,486 326.803424,475.652948 344.884515,459 Z" id="Shirt" stroke="#3A3B3B" stroke-width="6" fill="#E6ECF0" sketch:type="MSShapeGroup"></path>
        <path d="M341.9068,429.373444 L411.99066,429.373444 C453.419413,429.373444 487,462.949324 487,504.36727 L487,622.006174 C487,663.426613 453.417175,697 411.99066,697 L138.00934,697 C96.5805874,697 63,663.42412 63,622.006174 L63,504.36727 C63,462.946831 96.5828254,429.373444 138.00934,429.373444 L201.616077,429.373444 C201.184138,438.885492 200.665993,474.784125 215.633947,498.148219 C233.878113,526.626284 273,538.205799 273,538.205799 C273,538.205799 309.563521,528.948414 328.628059,498.148219 C341.903651,476.700502 342.097601,439.148118 341.9068,429.373444 Z" id="Sweater" stroke="#272031" stroke-width="10" fill="#3C4D5B" sketch:type="MSShapeGroup"></path>
        <path d="M384.569214,471.743624 C384.569214,471.743624 381.837097,461.401869 384.569214,455.679802 C387.30133,449.957735 362.200531,469.877956 362.200531,469.877956 L369.636139,438.579355 L349.974213,438.579355 C349.974213,438.579355 351.930237,474.205154 338.345734,497.639198 C332.953485,506.941133 324.336911,519.849002 312.945862,527.967392 C295.639837,540.301383 275.139755,545.991661 275.139755,545.991661 C275.139755,545.991661 271.498239,549.994382 236.423248,529.531853 C226.605743,523.804382 212.239014,512.457607 204.390884,495.624683 C196.542755,478.791759 192.295204,438.579355 192.295204,438.579355 C192.295204,438.579355 188.980915,457.807085 182.041389,464.131723 C179.323014,466.609232 158.953674,452.802408 158.953674,452.802408 L163.895691,477.723629 C163.895691,477.723629 141.363747,446.488668 113.186897,468.040653 C85.0100432,489.592637 98.0585938,676.441406 98.0585938,676.441406 L440.457031,682.640625 C440.457031,682.640625 453.71884,486.402069 432.362274,468.040653 C411.005707,449.679237 384.569214,471.743624 384.569214,471.743624 Z" id="Shirt-shadow" fill="#34434F" sketch:type="MSShapeGroup"></path>
        <g id="Right-ear" sketch:type="MSLayerGroup" transform="translate(435.000000, 192.000000)">
            <path d="M11.643404,138.481445 C31.4412727,141.776825 63.44678,114.114065 77.5933609,77.0398636 C91.663796,40.1652164 80.2991323,8.26249705 63.3162761,1.97069138 C46.3896465,-4.30028301 29.1149191,5.53485269 14.6931992,42.6090546 C0.19213817,79.8872137 -1.52880329,106.488564 1.38802013,123.557945 C4.47053534,141.051842 11.643404,138.481445 11.643404,138.481445 Z" id="Ear" stroke="#4D4540" stroke-width="8" fill="#F6DFD2" sketch:type="MSShapeGroup"></path>
            <path d="M24.2344646,104.101097 C22.1180457,107.387301 28.9300923,109.817375 28.9300923,109.817375 C55.5647393,94.7292435 59.0750771,88.5946808 65.3127975,53.1381683 C69.4518013,30.8502893 69.7204065,22.9637502 61.8832054,20.2472689 C54.0027739,17.5158043 40.9947597,19.8968527 32.1260834,44.5507107 C27.5901568,57.8072503 23.6861835,66.2783737 33.7240791,78.1749535 C40.1138165,85.7478577 27.9413657,98.3453212 24.2344646,104.101097 Z" id="Inner-ear" fill="#F9D0BC" sketch:type="MSShapeGroup"></path>
            <polygon id="Inner-ear-2" fill="#D79F8D" sketch:type="MSShapeGroup" points="32.4999996 57 42.3666954 65.6305885 46.975214 79.8787785 43.4078064 101.091682 18.6603718 111.322189 33.7238197 90.5795746 34.4037571 78.000494 26.7000237 70.888072 "></polygon>
            <path d="M42.9426555,98.4761919 C42.9426555,98.4761919 47.089786,85.3533303 47.0897862,80.7817677 C47.0897865,76.2102051 42.8195375,66.9288387 41.0073278,64.7461958 C39.1951182,62.5635529 31.3306898,57.0048843 31.3306896,57.0048852" id="Path-6" stroke="#4D4540" stroke-width="4" stroke-linecap="round" sketch:type="MSShapeGroup"></path>
            <path d="M53.1722445,43.1811163 C53.1722445,43.1811163 49.3199276,40.8613219 45,39.1128311 C40.6800724,37.3643404 37.6009729,42.2383714 35.5911269,38.3439565" id="Path-8" stroke="#4D4540" stroke-width="4" stroke-linecap="round" sketch:type="MSShapeGroup"></path>
            <path d="M63.230542,52.4625117 C63.230542,52.4625117 67.7685286,36.4444098 66.4927406,31.2937555 C65.216953,26.1431012 65.0578149,20.7509716 59.5106583,20.7509713 C53.9635016,20.7509711 53.670858,18.4224388 48.0917109,22.9293821 C42.5125637,27.4363251 39.4995321,30.5715056 36.179188,37.075503 C32.8588438,43.5795002 27.7411508,63.6261926 27.7411509,66.2398109 C27.7411511,68.8534293 26.0106947,70.6922157 30.2229271,73.2748146 C34.4351597,75.8574131 35.4346537,75.5818012 35.4346553,80.5065759 C35.4346571,85.4313507 35.4346555,92.8786141 30.2229266,98.6235378 C25.0111978,104.368462 16.7476938,103.896622 16.7476935,108.30246 C16.7476934,112.708298 15.8887332,110.613616 27.741151,108.302463 C39.5935688,105.99131 43.0515741,101.164448 48.0917109,95.6454071 C53.1318474,90.1263657 56.0353317,85.9073443 57.2742806,83.9810618" id="Path-5" stroke="#4D4540" stroke-width="6" stroke-linecap="round" sketch:type="MSShapeGroup"></path>
        </g>
        <g id="Left-ear" sketch:type="MSLayerGroup" transform="translate(72.000000, 261.500000) scale(-1, 1) translate(-72.000000, -261.500000) translate(30.000000, 192.000000)">
            <path d="M11.643404,138.481445 C31.4412727,141.776825 63.44678,114.114065 77.5933609,77.0398636 C91.663796,40.1652164 80.2991323,8.26249705 63.3162761,1.97069138 C46.3896465,-4.30028301 29.1149191,5.53485269 14.6931992,42.6090546 C0.19213817,79.8872137 -1.52880329,106.488564 1.38802013,123.557945 C4.47053534,141.051842 11.643404,138.481445 11.643404,138.481445 Z" id="Ear" stroke="#4D4540" stroke-width="8" fill="#F6DFD2" sketch:type="MSShapeGroup"></path>
            <path d="M24.2344646,104.101097 C22.1180457,107.387301 28.9300923,109.817375 28.9300923,109.817375 C55.5647393,94.7292435 59.0750771,88.5946808 65.3127975,53.1381683 C69.4518013,30.8502893 69.7204065,22.9637502 61.8832054,20.2472689 C54.0027739,17.5158043 40.9947597,19.8968527 32.1260834,44.5507107 C27.5901568,57.8072503 23.6861835,66.2783737 33.7240791,78.1749535 C40.1138165,85.7478577 27.9413657,98.3453212 24.2344646,104.101097 Z" id="Inner-ear" fill="#F9D0BC" sketch:type="MSShapeGroup"></path>
            <polygon id="Inner-ear-2" fill="#D79F8D" sketch:type="MSShapeGroup" points="32.4999996 57 42.3666954 65.6305885 46.975214 79.8787785 43.4078064 101.091682 18.6603718 111.322189 33.7238197 90.5795746 34.4037571 78.000494 26.7000237 70.888072 "></polygon>
            <path d="M42.9426555,98.4761919 C42.9426555,98.4761919 47.089786,85.3533303 47.0897862,80.7817677 C47.0897865,76.2102051 42.8195375,66.9288387 41.0073278,64.7461958 C39.1951182,62.5635529 31.3306898,57.0048843 31.3306896,57.0048852" id="Path-6" stroke="#4D4540" stroke-width="4" stroke-linecap="round" sketch:type="MSShapeGroup"></path>
            <path d="M53.1722445,43.1811163 C53.1722445,43.1811163 49.3199276,40.8613219 45,39.1128311 C40.6800724,37.3643404 37.6009729,42.2383714 35.5911269,38.3439565" id="Path-8" stroke="#4D4540" stroke-width="4" stroke-linecap="round" sketch:type="MSShapeGroup"></path>
            <path d="M63.230542,52.4625117 C63.230542,52.4625117 67.7685286,36.4444098 66.4927406,31.2937555 C65.216953,26.1431012 65.0578149,20.7509716 59.5106583,20.7509713 C53.9635016,20.7509711 53.670858,18.4224388 48.0917109,22.9293821 C42.5125637,27.4363251 39.4995321,30.5715056 36.179188,37.075503 C32.8588438,43.5795002 27.7411508,63.6261926 27.7411509,66.2398109 C27.7411511,68.8534293 26.0106947,70.6922157 30.2229271,73.2748146 C34.4351597,75.8574131 35.4346537,75.5818012 35.4346553,80.5065759 C35.4346571,85.4313507 35.4346555,92.8786141 30.2229266,98.6235378 C25.0111978,104.368462 16.7476938,103.896622 16.7476935,108.30246 C16.7476934,112.708298 15.8887332,110.613616 27.741151,108.302463 C39.5935688,105.99131 43.0515741,101.164448 48.0917109,95.6454071 C53.1318474,90.1263657 56.0353317,85.9073443 57.2742806,83.9810618" id="Path-5" stroke="#4D4540" stroke-width="6" stroke-linecap="round" sketch:type="MSShapeGroup"></path>
        </g>
        <g id="Face" sketch:type="MSLayerGroup" transform="translate(78.000000, -68.000000)">
            <g id="Head">
                <use stroke="#4D4540" stroke-width="8" fill="#FCE8DC" fill-rule="evenodd" sketch:type="MSShapeGroup" xlink:href="#path-1"></use>
                <use stroke="none" fill="none" xlink:href="#path-1"></use>
            </g>
            <path d="M77.6223087,305.811554 C70.334368,317.171014 55.0489304,326.385567 55.8652072,335.818115 C57.6303953,356.215879 78.4220533,371.524118 84.4345055,388.962067 C92.6515493,412.794002 93.2103176,438.855201 105.795647,456.013397 C119.222332,474.318656 137.108101,508.816803 152.778671,508.816803 C161.668877,508.816803 174.820686,502.231354 195,502.231354 C215.179314,502.231354 229.807556,506.176117 235.208817,506.176117 C240.232086,506.176117 275.681502,471.521937 290.388245,452.061676 C302.53764,435.985348 298.042883,405.040193 305.867844,383.483795 C311.17717,368.857529 332.080532,361.137271 334.318146,344.405792 C335.504926,335.531791 327.200688,325.780169 322.807648,315.211273 C317.464451,302.356465 315.689117,288.546284 315.689117,276.852005 C315.689117,271.102615 315.698449,263.071237 317.453918,257.935089 C321.754581,245.35222 330.122106,236.705933 327.824554,223.727676 C324.956535,207.526997 318.344269,191.682023 313.515106,176.898186 C305.689353,152.940692 302.845212,111.959541 290.388245,94.4882812 C266.203994,60.5691614 231.289697,43.9335669 195,43.933567 C155.053522,43.9335669 119.709513,54.2889117 96.1367188,94.4882812 C88.0719513,108.241363 82.1898329,152.953188 77.6223087,170.937668 C73.9325936,185.465804 67.167662,200.642592 64.0595598,215.913193 C61.3878609,229.039678 75.2336705,238.546143 81.1557579,251.875168 C84.5168082,259.439987 81.1557578,270.369499 81.1557579,278.579361 C81.1557577,286.286863 83.1902691,297.132965 77.6223087,305.811554 Z" id="Face-shadow" fill="#F9D0BC" sketch:type="MSShapeGroup"></path>
            <path d="M317.894957,362.841249 C320.157903,363.621488 315.955219,370.203833 313.044806,383.479744 C310.134393,396.755656 310.785284,401.081521 307.453011,410.472404 C304.120737,419.863288 298.919713,423.286526 298.919713,423.286526 C298.919713,423.286526 300.965198,408.800584 300.582964,399.009604 C300.081221,386.157321 295.970578,380.4499 297.151759,378 C298.33294,375.5501 315.63201,362.061011 317.894957,362.841249 Z" id="Polygon-34" fill="#D79F8D" sketch:type="MSShapeGroup"></path>
            <path d="M243.538379,349.982587 C246.197495,347.995851 253.804407,356.772852 258.947291,362.462992 C264.090176,368.153131 264.556161,369.74397 267.993019,377.039454 C272.196337,385.961915 276.718594,407.030128 276.718594,407.030128 C276.718594,407.030128 265.822155,384.798437 258.947291,374.538464 C252.072429,364.278489 243.538379,357.512327 243.538379,357.512327 C243.538379,357.512327 240.879263,351.969323 243.538379,349.982587 Z" id="Polygon-35" fill="#D79F8D" sketch:type="MSShapeGroup"></path>
            <path d="M65.5139073,362.060403 C67.4218012,362.060403 83.1063672,385.20515 86.1829624,387.074757 C89.2595577,388.944363 94.3518925,422.234737 94.3518925,422.234737 C94.3518925,422.234737 88.4873823,423.073585 82.0042362,412.587746 C75.5210897,402.101907 71.4001307,385.112562 71.4001307,385.112562 C71.4001307,385.112562 63.6060133,362.060403 65.5139073,362.060403 Z" id="Polygon-36" fill="#D79F8D" sketch:type="MSShapeGroup"></path>
            <path d="M141.591066,352.687847 C141.591066,352.687847 141.8379,354.243093 133.815914,368.58285 C125.793928,382.922604 125.439295,380.759638 117.242678,396.211975 C112.035487,406.028616 111.678478,418.902702 111.678478,418.902702 C111.678478,418.902702 107.748512,403.784103 107.748512,401.099056 C107.748512,398.414009 113.609312,385.472302 122.328253,373 C131.047195,360.527699 141.591066,352.687847 141.591066,352.687847 Z" id="Polygon-37" fill="#D79F8D" sketch:type="MSShapeGroup"></path>
        </g>
        <g id="Mouth" sketch:type="MSLayerGroup" transform="translate(202.000000, 334.000000)">
            <path d="M67.3336563,6.88245916 C109.033382,5.95232085 145.992325,0.492948771 145.992325,0.492948771 C145.992325,0.492948771 140.309365,10.6409137 130.660339,20.6198826 C122.505091,29.0539968 110.383774,37.3191147 110.383774,37.3191147 C110.383774,37.3191147 98.4121857,40.5724792 67.3336563,40.5724792 C36.255127,40.5724806 13.9769535,31.207859 13.9769535,31.207859 L12.2682772,19.4822254 L0.0768623352,3.74768639 C0.0768623352,3.74768639 25.633931,7.81259752 67.3336563,6.88245916 Z" fill="#2F2B29" sketch:type="MSShapeGroup"></path>
            <path d="M70.5684509,9.69389701 C99.9580364,9.2864113 128.901749,6.25958019 128.901749,6.25958019 C128.901749,6.25958019 128.276011,10.2797592 125.234085,17.2354202 C124.460808,19.0035944 104.550156,22.8935776 104.550156,22.8935776 C104.550156,22.8935776 117.303909,22 122.096504,20.5669975 C119.48365,28.0108433 109.310417,34.4079304 109.310417,34.4079304 C109.310417,34.4079304 84.0919523,38.0805274 61.6728363,36.8889027 C39.2915292,35.699287 18.6209159,29.5041924 18.6209159,29.5041924 C18.6209159,29.5041924 19.241202,24.5380732 18.6209159,19.7863064 C18.4781612,18.6927196 16.4123802,19.1335819 16.2283235,18.0693245 C15.2441211,12.3784529 13.647336,7.85757542 13.647336,7.85757542 C13.647336,7.85757542 41.1788655,10.1013827 70.5684509,9.69389701 Z" id="Teeth" fill="#FFFFFF" sketch:type="MSShapeGroup"></path>
            <path d="M118.332094,7.22724267 C124.887974,6.67932652 128.901749,6.25958019 128.901749,6.25958019 C128.901749,6.25958019 128.276011,10.2797592 125.234085,17.2354202 C124.460808,19.0035944 104.550156,22.8935776 104.550156,22.8935776 C104.550156,22.8935776 117.303909,22 122.096504,20.5669975 C119.48365,28.0108433 109.310417,34.4079304 109.310417,34.4079304 C109.310417,34.4079304 109.233261,34.4191668 109.083689,34.4401948 C111.308413,31.4230246 115.075475,26.0220115 114.574997,24.6841202 C114.054649,23.2931137 101.083366,23.2931137 101.083366,23.2931137 C101.083366,23.2931137 114.135269,19.6557484 115.304329,18.3550949 C116.123195,17.4440542 118.678743,11.1869801 118.332094,7.22724267 Z M21.0416429,30.1828196 C19.481514,29.7621182 18.6209159,29.5041924 18.6209159,29.5041924 C18.6209159,29.5041924 19.241202,24.5380732 18.6209159,19.7863064 C18.4781612,18.6927196 16.4123802,19.1335819 16.2283235,18.0693245 C15.2441211,12.3784529 13.647336,7.85757542 13.647336,7.85757542 C13.647336,7.85757542 16.1105228,8.05832403 20.3498514,8.32882404 C20.9397882,10.6855488 21.8983205,14.2747671 23.0082242,17.510644 C23.6175646,19.2871492 27.9307427,19.764636 27.9307427,19.764636 C27.9307427,19.764636 25.1761983,20.4988289 24.0721192,22.2065372 C22.3150239,24.9242833 21.4240565,28.3366699 21.0416429,30.1828196 Z" id="Teeth-shaow" fill="#DFE6EB" sketch:type="MSShapeGroup"></path>
            <path d="M54.7224741,58.7455578 C57.3000308,60.3604901 60.0940532,62.9714368 64.6158047,62.9714365 C70.5151393,62.9714362 72.7199439,62.2248171 76.016098,60.3322287 C81.6595666,57.0918575 85.8118019,53.5173054 85.8118019,53.5173054 L46.1202798,50.4509627 C46.1202798,50.4509627 48.1795817,54.6461992 54.7224741,58.7455578 Z" id="Lip-shadow" fill="#D79F8D" sketch:type="MSShapeGroup"></path>
        </g>
        <g id="Nose" sketch:type="MSLayerGroup" transform="translate(223.000000, 190.000000)">
            <path d="M26.5498848,0.694501519 C26.5498848,0.694501519 23.8066563,77.3252287 23.7089405,82.2215271 C23.6112247,87.1178255 29.3310261,88.7712021 28.2803688,90.2579269 C27.2297115,91.7446514 22.3375521,94.1029432 12.470665,97.4502029 C2.60377793,100.797462 2.7452969,98.0256042 2.74516106,96.5619202 C2.7446357,90.9010809 5.48658689,90.9356147 8.78297424,86.9769669 C10.9313551,84.3969656 12.470665,81.674324 12.470665,81.674324 C12.470665,81.674324 12.101634,77.8523415 12.470665,61.7849579 C12.8424161,45.5991576 15.7348862,16.9907257 16.7392302,13.6449213 C18.7405701,6.97778988 26.5498848,0.694501519 26.5498848,0.694501519 Z" id="Nose-highlight" fill="#FCE9DD" sketch:type="MSShapeGroup"></path>
            <path d="M67.8377342,1.73038435 C69.281997,1.73038432 70.2102352,0.87758434 71.8359985,5.43850374 C73.7980798,10.9429303 75.7210256,17.7775598 78.0609818,25.2783928 C84.1947898,44.940584 88.8740768,50.928566 89.9437847,65.8801041 C91.013493,80.8316421 85.9019241,84.6048584 87.1068668,88.0411987 C88.3118095,91.4775391 94.2286267,97.5756628 92.153862,103.324738 C91.2309647,105.882042 89.0243198,109.548534 85.9019241,112.182106 C80.1897761,116.999992 68.5819874,125.086816 63.0366211,128.045578 C51.9701879,133.950136 55.5815639,133.270447 42.5379562,133.270447 C29.4943485,133.27045 32.4752224,129.718786 22.9548788,124.212662 C14.319926,119.218605 8.49344096,112.685825 8.74104881,111.019196 C8.83569608,110.382132 11.7836532,103.709704 18.3799906,105.882042 C23.171184,107.459901 26.918629,110.200774 31.9992676,113.682503 C37.5415691,117.480606 44.2449896,121.965715 44.9045925,121.881966 C53.4110811,120.801903 65.0887038,109.892897 70.3801994,103.324738 C73.510818,99.4388038 75.6501541,95.4785919 75.6501541,95.4785919 C75.6501541,95.4785919 68.1524544,81.5760498 67.2106739,78.7056274 C66.2688933,75.8352051 66.8368634,1.73038432 67.8377342,1.73038435 Z" id="Nose-shadow" fill="#D79F8D" sketch:type="MSShapeGroup"></path>
            <path d="M68.1771469,3.10422659 C68.1771469,3.10422659 67.1299629,72.5824438 67.1299631,77.6135752 C67.1299634,82.6447067 76.5105972,90.1581573 75.3138066,96.5559473 C74.1170161,102.953737 53.8372771,118.773047 53.8372771,118.773047 C53.8372771,118.773047 47.7340838,122.105617 44.2098673,122.105612 C40.6856508,122.105606 36.9835246,118.452665 33.6567451,115.255339 C30.3299656,112.058014 24.7908779,105.627929 19.9562004,105.62793 C15.1215229,105.62793 9.63450654,106.176124 8.84765069,108.775352 C8.06079483,111.37458 8.27558931,111.922773 9.77336317,113.589057 C11.271137,115.255341 14.1849613,115.810766 18.4750605,115.810767 C22.7651596,115.810768 25.0396634,116.736478 26.2510453,116.736479" id="Path-16" stroke="#4D4540" stroke-width="4" stroke-linecap="round" sketch:type="MSShapeGroup"></path>
            <path d="M12.7067146,84.558569 C12.7067146,84.558569 4.61757857,92.2933304 2.85727835,95.3546906 C1.096978,98.41605 -0.0362964301,104.930753 1.81223586,107.84964 C3.66076798,110.768526 10.8842181,114.699913 10.8842181,114.699912" id="Path-17" stroke="#4D4540" stroke-width="4" stroke-linecap="round" sketch:type="MSShapeGroup"></path>
            <path d="M85.9218922,87.8332769 C85.9219068,87.8332824 92.2637443,96.6485194 92.2637463,99.2824602 C92.2637484,101.916401 90.5041695,104.973421 88.803896,107.467783 C87.1036224,109.962145 83.7681653,113.589058 81.2383664,113.589057 C79.8591413,113.589056 77.3578131,112.949665 74.7786288,113.589056 C72.6270285,114.122448 70.4215715,115.853409 68.7651141,116.697426" id="Path-18" stroke="#4D4540" stroke-width="4" stroke-linecap="round" sketch:type="MSShapeGroup"></path>
        </g>
        <g id="Right-eyebrow" sketch:type="MSLayerGroup" transform="translate(295.000000, 162.000000)">
            <path d="M14,17 C1.74286842,27.681488 5.67706585,25.9309473 1.74286842,33.0234814 C-2.19132858,40.1160155 10.5665302,70.4187775 10.5665302,70.4187775 C10.5665302,70.4187775 10.4081911,61.622364 22.2146397,57.1748581 C24.0056084,56.5001976 32.5895387,61.7118177 34.6198769,60.9692764 C54.977733,53.5239435 77.2222977,50.7939796 77.2222977,50.7939796 L95.7258148,17 C95.7258148,17 26.2571312,6.31851179 14,17 Z" id="Eye-shadow" fill="#D79F8D" sketch:type="MSShapeGroup"></path>
            <path d="M81.5210495,0.465097904 C90.7626648,0.465097904 107.741111,9.99688712 107.741112,13.5506277 C107.741112,17.1043681 122.145798,27.6130791 116.548256,29.2509441 C110.950714,30.8888093 80.3616332,18.2391871 61.7543831,18.2391872 C35.495674,18.2391881 10.905982,25.2617321 8.85004425,23.7532902 C6.79410641,22.2448483 16.1435686,2.88612639 22.6457243,4.74671173 C29.1478806,6.60729694 72.2794342,0.465097904 81.5210495,0.465097904 Z" id="Eyebrow" fill="#522F0E" sketch:type="MSShapeGroup"></path>
        </g>
        <g id="Left-eyebrow" sketch:type="MSLayerGroup" transform="translate(131.000000, 163.000000)">
            <path d="M24.1933451,9 L31.5470228,51.7307434 C31.5470228,51.7307434 42.3471975,50.8167109 62.6319962,53.8385582 C73.4465379,55.4496116 98.8481193,63.0361059 100.375977,61.705822 C104.769631,57.8803292 102.851166,57.7018679 105.476631,49.9148674 C107.036805,45.2874678 109.548061,38.4041 109.163399,32.7527218 C108.715006,26.1650371 97.4152451,18.2073879 97.4152451,18.2073879 L24.1933451,9 Z" id="Eye-shadow" fill="#D79F8D" sketch:type="MSShapeGroup"></path>
            <path d="M75.2340927,1.86769009 C83.7604209,2.2423417 92.6914011,1.01292497 94.5859032,1.86769009 C100.550049,4.55860519 107.862503,27.5338955 107.862503,27.5338955 C107.862503,27.5338955 98.9383469,30.9599686 91.8978348,30.4483414 C84.8573227,29.9367141 87.1626027,24.6339303 75.2340927,20.5716858 C63.3055817,16.5094416 53.7884968,14.4298189 45.1102238,14.5148582 C35.0677503,14.6132651 12.50859,20.5716859 8.99148464,20.5716858 C2.43504797,20.5716862 0.0971069336,14.5148582 0.0971069336,14.5148582 C0.0971069336,14.5148582 26.14532,0.406935692 34.4558334,0.406935692 C42.766347,0.406935692 56.9183984,1.06288825 75.2340927,1.86769009 Z" id="Eyebrow" fill="#522F0E" sketch:type="MSShapeGroup"></path>
        </g>
        <g id="Right-eye" sketch:type="MSLayerGroup" transform="translate(318.000000, 191.000000)">
            <path d="M5.68596196,25.9490814 C6.8630849,27.8707823 11.8642979,33.1116333 11.8642979,33.1116333 L62.7944527,33.1116333 C62.7944527,33.1116333 70.634606,25.9120165 72.4162674,23.9780941 C75.103309,21.061417 74.2946472,19.599511 74.2946472,16.8567381 C74.2946472,8.71696066 59.6583944,5.16749431 39.5,5.1674943 C19.3416056,5.16749431 5.12679187,11.9825656 5.12679183,20.1223431 C5.12679186,22.171473 4.48984243,23.9963685 5.68596196,25.9490814 Z" id="Eye-white" fill="#FFFFFF" sketch:type="MSShapeGroup"></path>
            <path d="M52,7.32235932 L52,21 L76.7874832,21 L72.9301643,10.6509781 L52,7.32235932 Z" id="Inner-eye-shadow" fill="#C7CFD5" sketch:type="MSShapeGroup"></path>
            <path d="M41,32 C49.8365564,32 57,25.060414 57,16.5 C57,7.93958595 49.8365564,2.76664611 41,2.76664615 C32.1634436,2.76664611 25,7.93958595 25,16.5 C25,25.060414 32.1634436,32 41,32 Z" id="Eyeball" stroke="#3C4E42" stroke-width="7" fill="#000000" sketch:type="MSShapeGroup"></path>
            <ellipse id="Eye-highlight" fill="#E0E0E0" sketch:type="MSShapeGroup" cx="35.5" cy="14" rx="4.5" ry="4"></ellipse>
            <path d="M69.0650482,3.12741327 C71.6977692,4.19391537 84.3681868,15.6947422 84.368187,16.9520874 C84.368187,18.2094326 75.2308996,24.629359 74.6317062,25.0104446 C74.0325129,25.3915303 71.6977692,25.0104446 71.6977692,25.0104446 C71.6977692,25.0104446 75.7319724,19.7915214 74.2128448,16.2883492 C72.6937177,12.7851768 66.5526581,9.57624531 65.0048294,9.57624531 C63.4570007,9.57624538 16.1059131,9.59643936 14.3607283,10.2188473 C12.6155434,10.8412552 4.42804074,22.3118057 4.42804074,22.3118057 C4.42804074,22.3118057 0.77748394,23.1269169 0.777483717,22.3118057 C0.777483603,21.4966946 10.0165424,3.58344555 15.9668055,1.42783117 C19.8033638,0.0379530175 66.6199925,2.13693338 69.0650482,3.12741327 Z" id="Eye-lash" fill="#2E2B29" sketch:type="MSShapeGroup"></path>
        </g>
        <g id="Left-eye" sketch:type="MSLayerGroup" transform="translate(140.000000, 191.000000)">
            <path d="M10.685962,25.9490814 C11.8630849,27.8707823 16.8642979,33.1116333 16.8642979,33.1116333 L67.7944527,33.1116333 C67.7944527,33.1116333 75.634606,25.9120165 77.4162674,23.9780941 C80.103309,21.061417 79.2946472,19.599511 79.2946472,16.8567381 C79.2946472,8.71696066 64.6583944,5.16749431 44.5,5.1674943 C24.3416056,5.16749431 10.1267919,11.9825656 10.1267918,20.1223431 C10.1267919,22.171473 9.48984243,23.9963685 10.685962,25.9490814 Z" id="Eye-white" fill="#FFFFFF" sketch:type="MSShapeGroup" transform="translate(44.500000, 19.500000) scale(-1, 1) translate(-44.500000, -19.500000) "></path>
            <path d="M55,7.32235932 L55,21 L79.7874832,21 L75.9301643,10.6509781 L55,7.32235932 Z" id="Inner-eye-shadow" fill="#C7CFD5" sketch:type="MSShapeGroup"></path>
            <path d="M44,32 C52.8365564,32 60,25.060414 60,16.5 C60,7.93958595 52.8365564,2.76664611 44,2.76664615 C35.1634436,2.76664611 28,7.93958595 28,16.5 C28,25.060414 35.1634436,32 44,32 Z" id="Eyeball" stroke="#3C4E42" stroke-width="7" fill="#000000" sketch:type="MSShapeGroup"></path>
            <ellipse id="Eye-highlight" fill="#E0E0E0" sketch:type="MSShapeGroup" cx="38.5" cy="14" rx="4.5" ry="4"></ellipse>
            <path d="M69.0650482,3.12741327 C71.6977692,4.19391537 84.3681868,15.6947422 84.368187,16.9520874 C84.368187,18.2094326 75.2308996,24.629359 74.6317062,25.0104446 C74.0325129,25.3915303 71.6977692,25.0104446 71.6977692,25.0104446 C71.6977692,25.0104446 75.7319724,19.7915214 74.2128448,16.2883492 C72.6937177,12.7851768 66.5526581,9.57624531 65.0048294,9.57624531 C63.4570007,9.57624538 16.1059131,9.59643936 14.3607283,10.2188473 C12.6155434,10.8412552 4.42804074,22.3118057 4.42804074,22.3118057 C4.42804074,22.3118057 0.77748394,23.1269169 0.777483717,22.3118057 C0.777483603,21.4966946 10.0165424,3.58344555 15.9668055,1.42783117 C19.8033638,0.0379530175 66.6199925,2.13693338 69.0650482,3.12741327 Z" id="Eye-lash" fill="#2E2B29" sketch:type="MSShapeGroup" transform="translate(42.500000, 13.000000) scale(-1, 1) translate(-42.500000, -13.000000) "></path>
        </g>
        <g id="Glasses" sketch:type="MSLayerGroup" transform="translate(85.000000, 176.000000)">
            <g id="Glasses-left">
                <g id="Lens-left">
                    <use stroke="#E5FFFF" stroke-width="1" stroke-linecap="round" stroke-linejoin="round" stroke-dasharray="70,100" fill-opacity="0.2" fill="#9FEEFE" fill-rule="evenodd" sketch:type="MSShapeGroup" xlink:href="#path-2"></use>
                    <use stroke="none" fill="none" xlink:href="#path-2"></use>
                </g>
                <path d="M118.707231,6.08530714 C91.9459779,2.90811148 59.4812402,3.60100358 43.7989589,11.627998 C26.5481472,32.0937804 44.4773362,77.444639 56.4939119,83.1934031 C56.658843,83.2664601 56.8546335,83.3498187 57.0806962,83.4422521 C60.1929756,84.7148135 69.0430174,87.7074117 82.0982698,89.2188038 L118.707231,6.08530714 Z" id="Highlight-left" fill-opacity="0.3" fill="#9CE7F3" sketch:type="MSShapeGroup"></path>
                <path d="M0.5,24.5 L17.5,19.5" id="Stem-left" stroke="#2B2C31" stroke-width="11" stroke-linecap="round" sketch:type="MSShapeGroup"></path>
                <path d="M14.1791382,10.4057617 C106.715355,-12.1895275 153.907211,8.66163801 171.827118,15.647624 C179.310013,15.2273821 189.450424,15.2273817 189.450424,15.2273817 L189.450424,28.3074183 C159.927826,23.7431235 175.387177,68.5163454 146.05899,87.0617556 C122.599075,95.0695376 66.5027122,96.0932726 49.2146187,82.053081 C31.1899802,66.3375506 36.8322875,26.42666 15.144176,25.8122248 C11.5182582,18.3972476 14.1791382,10.4057617 14.1791382,10.4057617 Z M43.7989589,11.627998 C71.7924484,-2.70050304 153.260979,6.34012687 160.309288,19.0473075 C170.649597,40.7136667 151.327523,84.4893168 135.528122,85.3311899 C94.0380598,95.9153291 63.4696593,86.0545973 57.0806962,83.4422521 C56.8546335,83.3498187 56.658843,83.2664601 56.4939119,83.1934031 C44.4773362,77.444639 26.5481472,32.0937804 43.7989589,11.627998 Z" id="Frame-left" fill="#2A2C31" sketch:type="MSShapeGroup"></path>
            </g>
            <g id="Glasses-right" transform="translate(281.000000, 46.500000) scale(-1, 1) translate(-281.000000, -46.500000) translate(186.000000, 0.000000)">
                <g id="Lens-right">
                    <use stroke="#E5FFFF" stroke-width="1" stroke-linecap="round" stroke-linejoin="round" stroke-dasharray="70,150" fill-opacity="0.2" fill="#9FEEFE" fill-rule="evenodd" sketch:type="MSShapeGroup" xlink:href="#path-3"></use>
                    <use stroke="none" fill="none" xlink:href="#path-3"></use>
                </g>
                <path d="M80.6170201,4.48371963 C114.492238,3.14273724 155.406333,10.2079203 160.309288,19.0473075 C170.649597,40.7136667 151.327523,84.4893168 135.528122,85.3311899 C129.342687,86.909098 123.399992,88.0326077 117.743966,88.793479 L80.6170226,4.48372264 Z" id="Highlight-right" fill-opacity="0.3" fill="#9CE7F3" sketch:type="MSShapeGroup"></path>
                <path d="M0.5,24.5 L17.5,19.5" id="Stem-right" stroke="#2B2C31" stroke-width="11" stroke-linecap="round" sketch:type="MSShapeGroup"></path>
                <path d="M14.1791382,10.4057617 C106.715355,-12.1895275 153.907211,8.66163801 171.827118,15.647624 C179.310013,15.2273821 189.450424,15.2273817 189.450424,15.2273817 L189.450424,28.3074183 C159.927826,23.7431235 175.387177,68.5163454 146.05899,87.0617556 C122.599075,95.0695376 66.5027122,96.0932726 49.2146187,82.053081 C31.1899802,66.3375506 36.8322875,26.42666 15.144176,25.8122248 C11.5182582,18.3972476 14.1791382,10.4057617 14.1791382,10.4057617 Z M43.7989589,11.627998 C71.7924484,-2.70050304 153.260979,6.34012687 160.309288,19.0473075 C170.649597,40.7136667 151.327523,84.4893168 135.528122,85.3311899 C94.0380598,95.9153291 63.4696593,86.0545973 57.0806962,83.4422521 C56.8546335,83.3498187 56.658843,83.2664601 56.4939119,83.1934031 C44.4773362,77.444639 26.5481472,32.0937804 43.7989589,11.627998 Z" id="Frame-right" fill="#2A2C31" sketch:type="MSShapeGroup"></path>
            </g>
            <path d="M188,17 L202,33 C202,33 195,28.2307043 188,28.2307043 C181,28.2307043 174,33 174,33 L188,17 Z" id="Bridge" fill="#2B2C31" sketch:type="MSShapeGroup"></path>
        </g>
    </g>
</svg>