<?xml version="1.0" encoding="UTF-8" standalone="no"?>
<svg
   xmlns:dc="http://purl.org/dc/elements/1.1/"
   xmlns:cc="http://creativecommons.org/ns#"
   xmlns:rdf="http://www.w3.org/1999/02/22-rdf-syntax-ns#"
   xmlns:svg="http://www.w3.org/2000/svg"
   xmlns="http://www.w3.org/2000/svg"
   version="1.1"
   width="743.38983"
   height="743.38983"
   id="svg2"
   xml:space="preserve"><metadata
     id="metadata8"><rdf:RDF><cc:Work
         rdf:about=""><dc:format>image/svg+xml</dc:format><dc:type
           rdf:resource="http://purl.org/dc/dcmitype/StillImage" /><dc:title></dc:title></cc:Work></rdf:RDF></metadata><defs
     id="defs6"><clipPath
       id="clipPath22"><path
         d="m -95,752 0,-799 754,0 0,799 -754,0 z"
         id="path24" /></clipPath><clipPath
       id="clipPath38"><path
         d="m 202,164 0,-82 139,0 0,82 -139,0 z"
         id="path40" /></clipPath><clipPath
       id="clipPath54"><path
         d="m 166,131 36.1155,0 c 18.0812,-16.653 43.382,-27 71.3845,-27 28.0025,0 53.3033,10.347 71.3845,27 l 16.1155,0 0,-92 -195,0 0,92 z"
         id="path56" /></clipPath><clipPath
       id="clipPath70"><path
         d="m 138.0093,160.6266 63.6068,0 c -0.432,-9.5123 -0.9501,-45.4108 14.0178,-68.77482 C 233.8781,63.37372 273,51.7942 273,51.7942 c 0,0 36.5635,9.25739 55.6281,40.05758 13.2756,21.44772 13.4695,59.00022 13.2787,68.77482 l 70.0839,0 C 453.4194,160.6266 487,127.0507 487,85.63273 l 0,-117.6389 C 487,-73.42661 453.4172,-107 411.9907,-107 l -273.9814,0 C 96.58059,-107 63,-73.42412 63,-32.00617 l 0,117.6389 c 0,41.42047 33.58282,74.99387 75.0093,74.99387 z"
         id="path72" /></clipPath><clipPath
       id="clipPath88"><path
         d="m 446.6434,259.5186 c 19.7979,-3.2954 51.8034,24.3673 65.95,61.4415 14.0704,36.8747 2.7057,68.7774 -14.2771,75.0692 -16.9267,6.271 -34.2014,-3.5642 -48.6231,-40.6384 -14.5011,-37.2781 -16.222,-63.8795 -13.3052,-80.9488 3.0825,-17.4939 10.2554,-14.9235 10.2554,-14.9235 z"
         id="path90" /></clipPath><clipPath
       id="clipPath120"><path
         d="m 102.3566,259.5186 c -19.79787,-3.2954 -51.80338,24.3673 -65.94996,61.4415 -14.07044,36.8747 -2.70577,68.7774 14.27708,75.0692 16.92663,6.271 34.20136,-3.5642 48.62308,-40.6384 14.5011,-37.2781 16.222,-63.8795 13.3052,-80.9488 -3.0825,-17.4939 -10.2554,-14.9235 -10.2554,-14.9235 z"
         id="path122" /></clipPath><clipPath
       id="clipPath152"><path
         d="m 162.6992,184.8945 c 17.278,-19.696 38.081,-41.8352 59.6158,-50.5478 16.8289,-6.8087 34.0631,-5.9175 50.685,-5.9175 17.7139,0 31.203,-1.1174 49.0497,5.9175 21.9102,8.6366 47.8758,30.8175 65.5373,50.5478 51.3783,57.3966 82.5147,156.6796 82.5147,246.1333 0,64.732 -12.9811,92.6719 -40.4103,138.4917 C 395.5728,626.5139 329.9449,658 273,658 216.891,658 154.0599,625.072 119.957,569.5195 91.62397,523.3659 78.9375,505.0194 78.9375,439.1055 c 0,-91.6729 31.0961,-194.1751 83.7617,-254.211 z"
         id="path154" /></clipPath><clipPath
       id="clipPath214"><path
         d="m 359,367 c 8.8366,0 16,6.9396 16,15.5 0,8.5604 -7.1634,13.7334 -16,13.7334 -8.8366,0 -16,-5.173 -16,-13.7334 0,-8.5604 7.1634,-15.5 16,-15.5 z"
         id="path216" /></clipPath><clipPath
       id="clipPath238"><path
         d="m 184,367 c 8.8366,0 16,6.9396 16,15.5 0,8.5604 -7.1634,13.7334 -16,13.7334 -8.8366,0 -16,-5.173 -16,-13.7334 0,-8.5604 7.1634,-15.5 16,-15.5 z"
         id="path240" /></clipPath><clipPath
       id="clipPath260"><path
         d="m 142.4446,409.3973 c 9.5041,1.4361 49.7797,4.7359 76.2565,0 15.7139,-2.8108 22.8066,-12.9372 25.9996,-15.7055 8.5731,-7.4326 1.4763,-20.031 -2.4848,-27.0507 -3.9611,-7.0196 -12.5206,-7.1278 -25.6048,-8.6208 -15.7444,-1.7965 -45.9277,-4.7756 -68.4273,-3.9083 -20.1708,0.7776 -24.3288,5.7982 -28.2456,10.5295 -3.9167,4.7313 -10.0794,25.9014 -7.3487,31.0513 2.7307,5.1499 14.7102,11.4161 29.8551,13.7045 z"
         id="path262" /></clipPath><clipPath
       id="clipPath282"><path
         d="m 400.5554,409.3973 c -9.5041,1.4361 -49.7797,4.7359 -76.2565,0 -15.7139,-2.8108 -22.8066,-12.9372 -25.9996,-15.7055 -8.5731,-7.4326 -1.4763,-20.031 2.4848,-27.0507 3.9611,-7.0196 12.5206,-7.1278 25.6048,-8.6208 15.7444,-1.7965 45.9277,-4.7756 68.4273,-3.9083 20.1708,0.7776 24.3288,5.7982 28.2456,10.5295 3.9167,4.7313 10.0794,25.9014 7.3487,31.0513 -2.7307,5.1499 -14.7102,11.4161 -29.8551,13.7045 z"
         id="path284" /></clipPath><clipPath
       id="clipPath3133"><rect
         width="594.71185"
         height="594.71185"
         x="-17.491526"
         y="-594.71185"
         transform="scale(1,-1)"
         id="rect3135"
         style="fill:#0000ff;fill-rule:evenodd;stroke:#000000;stroke-width:0.80000001px;stroke-linecap:butt;stroke-linejoin:miter;stroke-opacity:1" /></clipPath></defs><g
     transform="matrix(1.25,0,0,-1.25,21.864407,743.38982)"
     clip-path="url(#clipPath3133)"
     id="g10"><g
       id="g12" /><g
       id="g14"><path
         d="m -94.85,751.85 0,-798.7 753.7,0 0,798.7 -753.7,0 z"
         id="path16"
         style="fill:#adc290;fill-opacity:1;fill-rule:evenodd;stroke:none" /></g><g
       id="g18"><g
         clip-path="url(#clipPath22)"
         id="g20"><g
           transform="matrix(1,0,0,-1,-95,752)"
           id="g26"><path
             d="M 0,0 0,799 754,799 754,0 0,0 z"
             id="path28"
             style="fill:none;stroke:#a8a8a8;stroke-width:2;stroke-linecap:butt;stroke-linejoin:miter;stroke-miterlimit:10;stroke-opacity:1;stroke-dasharray:none" /></g></g></g><g
       id="g30"><path
         d="m 202.15,163.85 0,-81.7 138.7,0 0,81.7 -138.7,0 z"
         id="path32"
         style="fill:#facfbb;fill-opacity:1;fill-rule:evenodd;stroke:none" /></g><g
       id="g34"><g
         clip-path="url(#clipPath38)"
         id="g36"><g
           transform="matrix(1,0,0,-1,202,164)"
           id="g42"><path
             d="M 0,0 0,82 139,82 139,0 0,0 z"
             id="path44"
             style="fill:none;stroke:#fce8da;stroke-width:28;stroke-linecap:butt;stroke-linejoin:miter;stroke-miterlimit:10;stroke-opacity:1;stroke-dasharray:none" /></g></g></g><g
       id="g46"><path
         d="m 166.15,130.85 36.0599,0 c 18.0534,-16.5987 43.3153,-26.912 71.2747,-26.912 27.9595,0 53.2213,10.3133 71.2747,26.912 l 16.0907,0 0,-91.7 -194.7,0 0,91.7 z"
         id="path48"
         style="fill:#e5ecf0;fill-opacity:1;fill-rule:evenodd;stroke:none" /></g><g
       id="g50"><g
         clip-path="url(#clipPath54)"
         id="g52"><g
           transform="matrix(1,0,0,-1,166,282)"
           id="g58"><path
             d="m 0,151 36.11549,0 c 18.08122,16.653 43.38197,27 71.38451,27 28.0025,0 53.3033,-10.347 71.3845,-27 l 16.1155,0 0,92 -195,0 0,-92 z"
             id="path60"
             style="fill:none;stroke:#3a3b3b;stroke-width:12;stroke-linecap:butt;stroke-linejoin:miter;stroke-miterlimit:10;stroke-opacity:1;stroke-dasharray:none" /></g></g></g><g
       id="g62"><path
         d="m 138.1063,160.4766 63.5617,0 c -0.4316,-9.5016 -0.9494,-45.3599 14.008,-68.69772 18.2312,-28.44615 57.3254,-40.01268 57.3254,-40.01268 0,0 36.5377,9.24701 55.5887,40.01268 13.2662,21.42372 13.46,58.93412 13.2694,68.69772 l 70.0342,0 c 41.3995,0 74.9563,-33.5383 74.9563,-74.9098 l 0,-117.50704 c 0,-41.37401 -33.5591,-74.90976 -74.9563,-74.90976 l -273.7874,0 c -41.39947,0 -74.9563,33.53824 -74.9563,74.90976 l 0,117.50704 c 0,41.374 33.55906,74.9098 74.9563,74.9098 z"
         id="path64"
         style="fill:#3c4d5b;fill-opacity:1;fill-rule:evenodd;stroke:none" /></g><g
       id="g66"><g
         clip-path="url(#clipPath70)"
         id="g68"><g
           transform="matrix(1,0,0,-1,63,164)"
           id="g74"><path
             d="m 75.00934,3.373444 63.60676,0 C 138.1841,12.88569 137.666,48.78419 152.6339,72.14822 170.8781,100.6263 210,112.2058 210,112.2058 c 0,0 36.5635,-9.2574 55.6281,-40.05758 C 278.9037,50.70047 279.0976,13.148 278.9068,3.373444 l 70.0839,0 C 390.4194,3.373444 424,36.94933 424,78.36727 l 0,117.63893 C 424,237.4266 390.4172,271 348.9907,271 L 75.00934,271 C 33.58059,271 0,237.4241 0,196.0062 L 0,78.36727 C 0,36.94683 33.58282,3.373444 75.00934,3.373444 z"
             id="path76"
             style="fill:none;stroke:#281f31;stroke-width:20;stroke-linecap:butt;stroke-linejoin:miter;stroke-miterlimit:10;stroke-opacity:1;stroke-dasharray:none" /></g></g></g><g
       id="g78"><path
         d="m 384.5692,118.2564 c 0,0 -2.7321,10.3417 0,16.0638 2.7321,5.7221 -22.3687,-14.1982 -22.3687,-14.1982 l 7.4356,31.2986 -19.6619,0 c 0,0 1.956,-35.6258 -11.6285,-59.0598 C 332.9535,83.05887 324.3369,70.151 312.9459,62.03261 295.6398,49.69862 275.1398,44.00834 275.1398,44.00834 c 0,0 -3.6416,-4.00272 -38.7166,16.45981 -9.8175,5.72747 -24.1842,17.07424 -32.0323,33.90717 -7.8481,16.83288 -12.0957,57.04528 -12.0957,57.04528 0,0 -3.3143,-19.2277 -10.2538,-25.5523 -2.7184,-2.4775 -23.0877,11.3293 -23.0877,11.3293 l 4.942,-24.9212 c 0,0 -22.532,31.2349 -50.7088,9.6829 C 85.01004,100.4074 98.05859,-86.44141 98.05859,-86.44141 L 440.457,-92.64062 c 0,0 13.2618,196.23852 -8.0947,214.59992 -21.3566,18.3615 -47.7931,-3.7029 -47.7931,-3.7029 z"
         id="path80"
         style="fill:#334350;fill-opacity:1;fill-rule:evenodd;stroke:none" /><path
         d="m 446.7524,259.668 c 19.7269,-3.2883 51.6178,24.3146 65.7137,61.3085 14.02,36.7948 2.6961,68.6284 -14.2259,74.9066 -16.866,6.2574 -34.0789,-3.5564 -48.4489,-40.5503 -14.4491,-37.1975 -16.1639,-63.7412 -13.2575,-80.7736 3.0714,-17.4561 10.2186,-14.8912 10.2186,-14.8912 z"
         id="path82"
         style="fill:#f6dfd0;fill-opacity:1;fill-rule:evenodd;stroke:none" /></g><g
       id="g84"><g
         clip-path="url(#clipPath88)"
         id="g86"><g
           transform="matrix(1,0,0,-1,435,398)"
           id="g92"><path
             d="M 11.6434,138.4814 C 31.44127,141.7768 63.44678,114.1141 77.59336,77.03986 91.6638,40.16522 80.29913,8.262497 63.31628,1.970691 46.38965,-4.300283 29.11492,5.534853 14.6932,42.60905 0.1921382,79.88721 -1.528803,106.4886 1.38802,123.5579 4.470535,141.0518 11.6434,138.4814 11.6434,138.4814 z"
             id="path94"
             style="fill:none;stroke:#4d4640;stroke-width:16;stroke-linecap:butt;stroke-linejoin:miter;stroke-miterlimit:10;stroke-opacity:1;stroke-dasharray:none" /></g></g></g><g
       id="g96"><path
         d="m 459.2345,293.8989 c -2.1165,-3.2862 4.6956,-5.7163 4.6956,-5.7163 26.6346,15.0882 30.145,21.2227 36.3827,56.6792 4.139,22.2879 4.4076,30.1744 -3.4296,32.8909 -7.8804,2.7315 -20.8884,0.3504 -29.7571,-24.3034 -4.5359,-13.2566 -8.4399,-21.7277 1.598,-33.6243 6.3897,-7.5729 -5.7827,-20.1703 -9.4896,-25.9261 z"
         id="path98"
         style="fill:#facfbb;fill-opacity:1;fill-rule:evenodd;stroke:none" /><path
         d="m 467.5,341 9.8667,-8.6306 4.6085,-14.2482 -3.5674,-21.2129 -24.7474,-10.2305 15.0634,20.7426 0.68,12.5791 -7.7038,7.1124 5.8,13.8881 z"
         id="path100"
         style="fill:#d89e8c;fill-opacity:1;fill-rule:evenodd;stroke:none" /><g
         transform="matrix(1,0,0,-1,466,341)"
         id="g102"><path
           d="m 11.94266,41.47619 c 0,0 4.14713,-13.12286 4.14713,-17.69442 0,-4.57156 -4.27025,-13.852931 -6.08246,-16.035574 C 8.195118,5.563553 0.3306898,0.00488431 0.3306896,0.00488523"
           id="path104"
           style="fill:none;stroke:#4d4640;stroke-width:4;stroke-linecap:round;stroke-linejoin:miter;stroke-miterlimit:10;stroke-opacity:1;stroke-dasharray:none" /></g><g
         transform="matrix(1,0,0,-1,470,360)"
         id="g106"><path
           d="m 18.17224,5.181116 c 0,0 -3.85231,-2.319794 -8.17224,-4.068285 C 5.680072,-0.6356596 2.600973,4.238371 0.5911269,0.3439565"
           id="path108"
           style="fill:none;stroke:#4d4640;stroke-width:4;stroke-linecap:round;stroke-linejoin:miter;stroke-miterlimit:10;stroke-opacity:1;stroke-dasharray:none" /></g><g
         transform="matrix(1,0,0,-1,451,378)"
         id="g110"><path
           d="m 47.23054,32.46251 c 0,0 4.53799,-16.0181 3.2622,-21.16875 C 49.21695,6.143101 49.05781,0.7509716 43.51066,0.7509713 37.9635,0.7509711 37.67086,-1.577561 32.09171,2.929382 26.51256,7.436325 23.49953,10.57151 20.17919,17.0755 c -3.32035,6.504 -8.43804,26.55069 -8.43804,29.16431 0,2.61362 -1.73046,4.45241 2.48178,7.035 4.21223,2.5826 5.21172,2.30699 5.21173,7.23177 0,4.92477 0,12.37203 -5.21173,18.11696 -5.211732,5.74492 -13.4752362,5.27308 -13.4752365,9.67892 -1e-7,4.40584 -0.8589603,2.31116 10.9934565,0 11.85242,-2.31115 15.31042,-7.13801 20.35056,-12.65705 5.04014,-5.51904 7.94362,-9.73807 9.18257,-11.66435"
           id="path112"
           style="fill:none;stroke:#4d4640;stroke-width:6;stroke-linecap:round;stroke-linejoin:miter;stroke-miterlimit:10;stroke-opacity:1;stroke-dasharray:none" /></g><path
         d="m 102.2476,259.668 c -19.72694,-3.2883 -51.61779,24.3146 -65.71369,61.3085 -14.02003,36.7948 -2.69608,68.6284 14.22594,74.9066 16.86599,6.2574 34.07883,-3.5564 48.44889,-40.5503 14.44906,-37.1975 16.16386,-63.7412 13.25746,-80.7736 -3.0714,-17.4561 -10.2186,-14.8912 -10.2186,-14.8912 z"
         id="path114"
         style="fill:#f6dfd0;fill-opacity:1;fill-rule:evenodd;stroke:none" /></g><g
       id="g116"><g
         clip-path="url(#clipPath120)"
         id="g118"><g
           transform="matrix(-1,0,0,-1,114,398)"
           id="g124"><path
             d="M 11.6434,138.4814 C 31.44127,141.7768 63.44678,114.1141 77.59336,77.03986 91.6638,40.16522 80.29913,8.262497 63.31628,1.970691 46.38965,-4.300283 29.11492,5.534853 14.6932,42.60905 0.1921382,79.88721 -1.528803,106.4886 1.38802,123.5579 4.470535,141.0518 11.6434,138.4814 11.6434,138.4814 z"
             id="path126"
             style="fill:none;stroke:#4d4640;stroke-width:16;stroke-linecap:butt;stroke-linejoin:miter;stroke-miterlimit:10;stroke-opacity:1;stroke-dasharray:none" /></g></g></g><g
       id="g128"><path
         d="m 89.76554,293.8989 c 2.11641,-3.2862 -4.69563,-5.7163 -4.69563,-5.7163 -26.63465,15.0882 -30.14499,21.2227 -36.38271,56.6792 -4.139,22.2879 -4.40761,30.1744 3.42959,32.8909 7.88044,2.7315 20.88845,0.3504 29.75713,-24.3034 4.53592,-13.2566 8.4399,-21.7277 -1.598,-33.6243 -6.38974,-7.5729 5.78271,-20.1703 9.48962,-25.9261 z"
         id="path130"
         style="fill:#facfbb;fill-opacity:1;fill-rule:evenodd;stroke:none" /><path
         d="m 81.5,341 -9.8667,-8.6306 -4.60851,-14.2482 3.5674,-21.2129 24.74744,-10.2305 -15.06345,20.7426 -0.67994,12.5791 7.70374,7.1124 L 81.5,341 z"
         id="path132"
         style="fill:#d89e8c;fill-opacity:1;fill-rule:evenodd;stroke:none" /><g
         transform="matrix(-1,0,0,-1,83,341)"
         id="g134"><path
           d="m 11.94266,41.47619 c 0,0 4.14713,-13.12286 4.14713,-17.69442 0,-4.57156 -4.27025,-13.852931 -6.08246,-16.035574 C 8.195118,5.563553 0.3306898,0.00488431 0.3306896,0.00488523"
           id="path136"
           style="fill:none;stroke:#4d4640;stroke-width:4;stroke-linecap:round;stroke-linejoin:miter;stroke-miterlimit:10;stroke-opacity:1;stroke-dasharray:none" /></g><g
         transform="matrix(-1,0,0,-1,79,360)"
         id="g138"><path
           d="m 18.17224,5.181116 c 0,0 -3.85231,-2.319794 -8.17224,-4.068285 C 5.680072,-0.6356596 2.600973,4.238371 0.5911269,0.3439565"
           id="path140"
           style="fill:none;stroke:#4d4640;stroke-width:4;stroke-linecap:round;stroke-linejoin:miter;stroke-miterlimit:10;stroke-opacity:1;stroke-dasharray:none" /></g><g
         transform="matrix(-1,0,0,-1,98,378)"
         id="g142"><path
           d="m 47.23054,32.46251 c 0,0 4.53799,-16.0181 3.2622,-21.16875 C 49.21695,6.143101 49.05781,0.7509716 43.51066,0.7509713 37.9635,0.7509711 37.67086,-1.577561 32.09171,2.929382 26.51256,7.436325 23.49953,10.57151 20.17919,17.0755 c -3.32035,6.504 -8.43804,26.55069 -8.43804,29.16431 0,2.61362 -1.73046,4.45241 2.48178,7.035 4.21223,2.5826 5.21172,2.30699 5.21173,7.23177 0,4.92477 0,12.37203 -5.21173,18.11696 -5.211732,5.74492 -13.4752362,5.27308 -13.4752365,9.67892 -1e-7,4.40584 -0.8589603,2.31116 10.9934565,0 11.85242,-2.31115 15.31042,-7.13801 20.35056,-12.65705 5.04014,-5.51904 7.94362,-9.73807 9.18257,-11.66435"
           id="path144"
           style="fill:none;stroke:#4d4640;stroke-width:6;stroke-linecap:round;stroke-linejoin:miter;stroke-miterlimit:10;stroke-opacity:1;stroke-dasharray:none" /></g><path
         d="m 162.785,185.0125 c 17.2647,-19.6848 38.0518,-41.8115 59.57,-50.5192 16.816,-6.8048 34.037,-5.9141 50.6462,-5.9141 17.7003,0 31.179,-1.1168 49.0121,5.9141 21.8934,8.6317 47.839,30.8001 65.487,50.5192 51.3388,57.3641 82.4514,156.5908 82.4514,245.9938 0,64.6954 -12.9712,92.6195 -40.3793,138.4133 -34.0925,56.9622 -99.67,88.4304 -156.5712,88.4304 -56.066,0 -118.8489,-32.9093 -152.9256,-88.4304 -28.31136,-46.1274 -40.9881,-64.4635 -40.9881,-130.3401 0,-91.6209 31.0723,-194.0651 83.6975,-254.067 z"
         id="path146"
         style="fill:#fce8da;fill-opacity:1;fill-rule:evenodd;stroke:none" /></g><g
       id="g148"><g
         clip-path="url(#clipPath152)"
         id="g150"><g
           transform="matrix(1,0,0,-1,78,658)"
           id="g156"><path
             d="m 84.69922,473.1055 c 17.27798,19.696 38.08098,41.8352 59.61578,50.5478 16.8289,6.8087 34.0631,5.9175 50.685,5.9175 17.7139,0 31.203,1.1174 49.0497,-5.9175 21.9102,-8.6366 47.8758,-30.8175 65.5373,-50.5478 51.3783,-57.3966 82.5147,-156.6796 82.5147,-246.1333 0,-64.732 -12.9811,-92.6719 -40.4103,-138.49173 C 317.5728,31.48606 251.9449,0 195,0 138.891,1.142565e-5 76.05994,32.92799 41.95703,88.48047 13.62397,134.6341 0.9375001,152.9806 0.9375,218.8945 c 10e-8,91.6729 31.09612,194.1751 83.76172,254.211 z"
             id="path158"
             style="fill:none;stroke:#4d4640;stroke-width:16;stroke-linecap:butt;stroke-linejoin:miter;stroke-miterlimit:10;stroke-opacity:1;stroke-dasharray:none" /></g></g></g><g
       id="g160"><path
         d="m 155.6223,352.1884 c -7.2879,-11.3594 -22.5734,-20.574 -21.7571,-30.0065 1.7652,-20.3978 22.5569,-35.706 28.5693,-53.144 8.217,-23.8319 8.7758,-49.8931 21.3611,-67.0513 13.4267,-18.3053 31.3125,-52.8034 46.9831,-52.8034 8.8902,0 22.042,6.5854 42.2213,6.5854 20.1793,0 34.8076,-3.9447 40.2088,-3.9447 5.0233,0 40.4727,34.6542 55.1794,54.1144 12.1494,16.0764 7.6547,47.0215 15.4796,68.5779 5.3094,14.6263 26.2127,22.3465 28.4503,39.078 1.1868,8.874 -7.1174,18.6256 -11.5105,29.1945 -5.3431,12.8548 -7.1185,26.665 -7.1185,38.3593 0,5.7494 0.009,13.7808 1.7648,18.9169 4.3007,12.5829 12.6682,21.2292 10.3707,34.2074 -2.8681,16.2007 -9.4803,32.0457 -14.3095,46.8295 -7.8257,23.9575 -10.6699,64.9387 -23.1269,82.4099 -24.1842,33.9191 -59.0985,50.5547 -95.3882,50.5547 -39.9465,0 -75.2905,-10.3553 -98.8633,-50.5547 -8.0647,-13.7531 -13.9469,-58.4649 -18.5144,-76.4494 -3.6897,-14.5281 -10.4546,-29.7049 -13.5627,-44.9755 -2.6717,-13.1265 11.1741,-22.6329 17.0962,-35.962 3.361,-7.5648 0,-18.4943 0,-26.7042 0,-7.7075 2.0345,-18.5536 -3.5335,-27.2322 z"
         id="path162"
         style="fill:#facfbb;fill-opacity:1;fill-rule:evenodd;stroke:none" /><path
         d="m 395.895,295.1588 c 2.2629,-0.7803 -1.9398,-7.3626 -4.8502,-20.6385 -2.9104,-13.276 -2.2595,-17.6018 -5.5918,-26.9927 -3.3323,-9.3909 -8.5333,-12.8141 -8.5333,-12.8141 0,0 2.0455,14.4859 1.6633,24.2769 -0.5018,12.8523 -4.6124,18.5597 -3.4312,21.0096 1.1811,2.4499 18.4802,15.939 20.7432,15.1588 z"
         id="path164"
         style="fill:#d89e8c;fill-opacity:1;fill-rule:evenodd;stroke:none" /><path
         d="m 321.5384,308.0174 c 2.6591,1.9867 10.266,-6.7903 15.4089,-12.4804 5.1429,-5.6901 5.6089,-7.281 9.0457,-14.5765 4.2033,-8.9224 8.7256,-29.9906 8.7256,-29.9906 0,0 -10.8964,22.2317 -17.7713,32.4916 -6.8749,10.26 -15.4089,17.0262 -15.4089,17.0262 0,0 -2.6591,5.543 0,7.5297 z"
         id="path166"
         style="fill:#d89e8c;fill-opacity:1;fill-rule:evenodd;stroke:none" /><path
         d="m 143.5139,295.9396 c 1.9079,0 17.5925,-23.1447 20.6691,-25.0144 3.0766,-1.8696 8.1689,-35.1599 8.1689,-35.1599 0,0 -5.8645,-0.8389 -12.3477,9.647 -6.4831,10.4858 -10.6041,27.4751 -10.6041,27.4751 0,0 -7.7941,23.0522 -5.8862,23.0522 z"
         id="path168"
         style="fill:#d89e8c;fill-opacity:1;fill-rule:evenodd;stroke:none" /><path
         d="m 219.5911,305.3122 c 0,0 0.2468,-1.5553 -7.7752,-15.895 -8.022,-14.3398 -8.3766,-12.1768 -16.5732,-27.6292 -5.2072,-9.8166 -5.5642,-22.6907 -5.5642,-22.6907 0,0 -3.93,15.1186 -3.93,17.8036 0,2.6851 5.8608,15.6268 14.5798,28.0991 8.7189,12.4723 19.2628,20.3122 19.2628,20.3122 z"
         id="path170"
         style="fill:#d89e8c;fill-opacity:1;fill-rule:evenodd;stroke:none" /><path
         d="m 269.3337,249.1175 c 41.6997,0.9302 78.6586,6.3896 78.6586,6.3896 0,0 -5.6829,-10.148 -15.332,-20.127 -8.1552,-8.4341 -20.2765,-16.6992 -20.2765,-16.6992 0,0 -11.9716,-3.2534 -43.0501,-3.2534 -31.0786,0 -53.3567,9.3646 -53.3567,9.3646 l -1.7087,11.7257 -12.1914,15.7345 c 0,0 25.557,-4.0649 67.2568,-3.1348 z"
         id="path172"
         style="fill:#2f2b29;fill-opacity:1;fill-rule:evenodd;stroke:none" /><path
         d="m 272.5685,246.3061 c 29.3895,0.4075 58.3332,3.4343 58.3332,3.4343 0,0 -0.6257,-4.0202 -3.6676,-10.9758 -0.7733,-1.7682 -20.6839,-5.6582 -20.6839,-5.6582 0,0 12.7537,0.8936 17.5463,2.3266 -2.6128,-7.4438 -12.7861,-13.8409 -12.7861,-13.8409 0,0 -25.2184,-3.6726 -47.6376,-2.481 -22.3813,1.1896 -43.0519,7.3847 -43.0519,7.3847 0,0 0.6203,4.9661 0,9.7179 -0.1427,1.0936 -2.2085,0.6527 -2.3926,1.717 -0.9842,5.6908 -2.581,10.2117 -2.581,10.2117 0,0 27.5316,-2.2438 56.9212,-1.8363 z"
         id="path174"
         style="fill:#ffffff;fill-opacity:1;fill-rule:evenodd;stroke:none" /><path
         d="m 320.3321,248.7728 c 6.5559,0.5479 10.5696,0.9676 10.5696,0.9676 0,0 -0.6257,-4.0202 -3.6676,-10.9758 -0.7733,-1.7682 -20.6839,-5.6582 -20.6839,-5.6582 0,0 12.7537,0.8936 17.5463,2.3266 -2.6128,-7.4438 -12.7861,-13.8409 -12.7861,-13.8409 0,0 -0.0771,-0.0113 -0.2267,-0.0323 2.2247,3.0172 5.9918,8.4182 5.4913,9.7561 -0.5204,1.391 -13.4916,1.391 -13.4916,1.391 0,0 13.0519,3.6374 14.2209,4.938 0.8189,0.911 3.3744,7.1681 3.0278,11.1279 z m -97.2905,-22.9556 c -1.5601,0.4207 -2.4207,0.6786 -2.4207,0.6786 0,0 0.6203,4.9661 0,9.7179 -0.1427,1.0936 -2.2085,0.6527 -2.3926,1.717 -0.9842,5.6908 -2.581,10.2117 -2.581,10.2117 0,0 2.4632,-0.2007 6.7026,-0.4712 0.5899,-2.3567 1.5484,-5.946 2.6583,-9.1818 0.6094,-1.7765 4.9225,-2.254 4.9225,-2.254 0,0 -2.7545,-0.7342 -3.8586,-2.4419 -1.7571,-2.7178 -2.648,-6.1302 -3.0305,-7.9763 z"
         id="path176"
         style="fill:#dfe6ea;fill-opacity:1;fill-rule:evenodd;stroke:none" /><path
         d="m 256.7225,197.2544 c 2.5775,-1.6149 5.3716,-4.2258 9.8933,-4.2258 5.8993,0 8.1041,0.7466 11.4003,2.6392 5.6435,3.2403 9.7957,6.8149 9.7957,6.8149 l -39.6915,3.0663 c 0,0 2.0593,-4.1952 8.6022,-8.2946 z"
         id="path178"
         style="fill:#d89e8c;fill-opacity:1;fill-rule:evenodd;stroke:none" /><path
         d="m 249.5499,399.3055 c 0,0 -2.7432,-76.6307 -2.841,-81.527 -0.0977,-4.8963 5.6221,-6.5497 4.5715,-8.0364 -1.0507,-1.4868 -5.9428,-3.845 -15.8097,-7.1923 -9.8669,-3.3473 -9.7254,-0.5754 -9.7255,0.8883 -6e-4,5.6608 2.7414,5.6263 6.0378,9.5849 2.1484,2.58 3.6877,5.3027 3.6877,5.3027 0,0 -0.3691,3.822 0,19.8893 0.3717,16.1858 3.2642,44.7943 4.2685,48.1401 2.0014,6.6671 9.8107,12.9504 9.8107,12.9504 z"
         id="path180"
         style="fill:#fce8db;fill-opacity:1;fill-rule:evenodd;stroke:none" /><path
         d="m 290.8377,398.2696 c 1.4443,0 2.3725,0.8528 3.9983,-3.7081 1.9621,-5.5044 3.885,-12.3391 6.225,-19.8399 6.1338,-19.6622 10.8131,-25.6502 11.8828,-40.6017 1.0697,-14.9515 -4.0419,-18.7248 -2.8369,-22.1611 1.2049,-3.4363 7.1217,-9.5345 5.047,-15.2835 -0.9229,-2.5573 -3.1296,-6.2238 -6.252,-8.8574 -5.7121,-4.8179 -17.3199,-12.9047 -22.8653,-15.8635 -11.0664,-5.9045 -7.455,-5.2248 -20.4986,-5.2248 -13.0437,0 -10.0628,3.5516 -19.5831,9.0577 -8.635,4.9941 -14.4615,11.5269 -14.2139,13.1935 0.0947,0.6371 3.0427,7.3095 9.639,5.1372 4.7912,-1.5779 8.5386,-4.3188 13.6193,-7.8005 5.5423,-3.7981 12.2457,-8.2832 12.9053,-8.1995 8.5065,1.0801 20.1841,11.9891 25.4756,18.5573 3.1306,3.8859 5.27,7.8461 5.27,7.8461 0,0 -7.4977,13.9026 -8.4395,16.773 -0.9418,2.8704 -0.3738,76.9752 0.627,76.9752 z"
         id="path182"
         style="fill:#d89e8c;fill-opacity:1;fill-rule:evenodd;stroke:none" /><g
         transform="matrix(1,0,0,-1,231,397)"
         id="g184"><path
           d="m 60.17715,0.1042266 c 0,0 -1.04719,69.4782134 -1.04719,74.5093534 0,5.03113 9.38064,12.54458 8.18385,18.94237 -1.19679,6.39779 -21.47653,22.21705 -21.47653,22.21705 0,0 -6.1032,3.3326 -9.62741,3.3326 -3.52422,0 -7.22635,-3.6529 -10.55312,-6.8503 -3.32678,-3.1973 -8.86587,-9.6274 -13.70055,-9.6274 -4.834677,0 -10.321693,0.5482 -11.1085493,3.1475 -0.78685587,2.5992 -0.5720614,3.1474 0.9257123,4.8137 1.497774,1.6662 4.411598,2.2217 8.701697,2.2217 4.2901,0 6.5646,0.9257 7.77599,0.9257"
           id="path186"
           style="fill:none;stroke:#4d4640;stroke-width:4;stroke-linecap:round;stroke-linejoin:miter;stroke-miterlimit:10;stroke-opacity:1;stroke-dasharray:none" /></g><g
         transform="matrix(1,0,0,-1,223,316)"
         id="g188"><path
           d="m 12.70671,0.558569 c 0,0 -8.089131,7.734761 -9.849432,10.796121 -1.7603,3.06136 -2.89357443,9.57606 -1.045042,12.49495 1.848532,2.91889 9.071984,6.85027 9.071984,6.85027"
           id="path190"
           style="fill:none;stroke:#4d4640;stroke-width:4;stroke-linecap:round;stroke-linejoin:miter;stroke-miterlimit:10;stroke-opacity:1;stroke-dasharray:none" /></g><g
         transform="matrix(1,0,0,-1,291,313)"
         id="g192"><path
           d="m 17.92189,0.8332769 c 2e-5,5.5e-6 6.34185,8.8152421 6.34186,11.4491831 0,2.63394 -1.75958,5.69096 -3.45985,8.18532 -1.70028,2.49436 -5.03573,6.12128 -7.56553,6.12128 -1.37923,0 -3.880557,-0.6394 -6.459741,0 -2.151601,0.53339 -4.357057,2.26435 -6.0135149,3.10837"
           id="path194"
           style="fill:none;stroke:#4d4640;stroke-width:4;stroke-linecap:round;stroke-linejoin:miter;stroke-miterlimit:10;stroke-opacity:1;stroke-dasharray:none" /></g><path
         d="m 309,411 c -12.2571,-10.6815 -8.3229,-8.9309 -12.2571,-16.0235 -3.9342,-7.0925 8.8236,-37.3953 8.8236,-37.3953 0,0 -0.1583,8.7964 11.6481,13.2439 1.791,0.6747 10.3749,-4.5369 12.4053,-3.7944 20.3578,7.4454 42.6024,10.1753 42.6024,10.1753 L 390.7258,411 c 0,0 -69.4687,10.6815 -81.7258,0 z"
         id="path196"
         style="fill:#d89e8c;fill-opacity:1;fill-rule:evenodd;stroke:none" /><path
         d="m 376.521,427.5349 c 9.2417,0 26.2201,-9.5318 26.2201,-13.0855 0,-3.5538 14.4047,-14.0625 8.8072,-15.7003 -5.5976,-1.6379 -36.1867,11.0117 -54.7939,11.0117 -26.2587,0 -50.8484,-7.0225 -52.9044,-5.5141 -2.0559,1.5085 7.2936,20.8672 13.7957,19.0066 6.5022,-1.8606 49.6337,4.2816 58.8753,4.2816 z"
         id="path198"
         style="fill:#532f09;fill-opacity:1;fill-rule:evenodd;stroke:none" /><path
         d="m 155.1933,418 7.3537,-42.7307 c 0,0 10.8002,0.914 31.085,-2.1079 10.8145,-1.611 36.2161,-9.1975 37.744,-7.8672 4.3936,3.8255 2.4752,4.0039 5.1006,11.7909 1.5602,4.6274 4.0715,11.5108 3.6868,17.1622 -0.4484,6.5877 -11.7482,14.5453 -11.7482,14.5453 L 155.1933,418 z"
         id="path200"
         style="fill:#d89e8c;fill-opacity:1;fill-rule:evenodd;stroke:none" /><path
         d="m 206.2341,425.1323 c 8.5263,-0.3746 17.4573,0.8548 19.3518,0 5.9641,-2.6909 13.2766,-25.6662 13.2766,-25.6662 0,0 -8.9242,-3.4261 -15.9647,-2.9144 -7.0405,0.5116 -4.7352,5.8144 -16.6637,9.8766 -11.9285,4.0623 -21.4456,6.1419 -30.1239,6.0568 -10.0424,-0.0984 -32.6016,-6.0568 -36.1187,-6.0568 -6.5565,0 -8.8944,6.0568 -8.8944,6.0568 0,0 26.0482,14.108 34.3587,14.108 8.3105,0 22.4626,-0.656 40.7783,-1.4608 z"
         id="path202"
         style="fill:#532f09;fill-opacity:1;fill-rule:evenodd;stroke:none" /><path
         d="m 323.686,373.0509 c 1.1771,-1.9217 6.1783,-7.1625 6.1783,-7.1625 l 50.9302,0 c 0,0 7.8401,7.1996 9.6218,9.1335 2.687,2.9167 1.8783,4.3786 1.8783,7.1214 0,8.1397 -14.6362,11.6892 -34.7946,11.6892 -20.1584,0 -34.3732,-6.8151 -34.3732,-14.9548 0,-2.0492 -0.637,-3.8741 0.5592,-5.8268 z"
         id="path204"
         style="fill:#ffffff;fill-opacity:1;fill-rule:evenodd;stroke:none" /><path
         d="M 370,391.6776 370,378 l 24.7875,0 -3.8573,10.349 L 370,391.6776 z"
         id="path206"
         style="fill:#c6cfd5;fill-opacity:1;fill-rule:evenodd;stroke:none" /><path
         d="m 359,367.15 c 8.7537,0 15.85,6.8684 15.85,15.3409 0,8.4726 -7.0963,13.5925 -15.85,13.5925 -8.7537,0 -15.85,-5.1199 -15.85,-13.5925 0,-8.4725 7.0963,-15.3409 15.85,-15.3409 z"
         id="path208"
         style="fill:#000000;fill-opacity:1;fill-rule:evenodd;stroke:none" /></g><g
       id="g210"><g
         clip-path="url(#clipPath214)"
         id="g212"><g
           transform="matrix(1,0,0,-1,343,397)"
           id="g218"><path
             d="M 16,30 C 24.83656,30 32,23.06041 32,14.5 32,5.939586 24.83656,0.7666461 16,0.7666461 7.163444,0.7666461 0,5.939586 0,14.5 0,23.06041 7.163444,30 16,30 z"
             id="path220"
             style="fill:none;stroke:#3c4e42;stroke-width:14;stroke-linecap:butt;stroke-linejoin:miter;stroke-miterlimit:10;stroke-opacity:1;stroke-dasharray:none" /></g></g></g><g
       id="g222"><path
         d="m 353.5,381 c 2.4853,0 4.5,1.7909 4.5,4 0,2.2091 -2.0147,4 -4.5,4 -2.4853,0 -4.5,-1.7909 -4.5,-4 0,-2.2091 2.0147,-4 4.5,-4 z"
         id="path224"
         style="fill:#e0dfe0;fill-opacity:1;fill-rule:evenodd;stroke:none" /><path
         d="m 387.065,395.8726 c 2.6328,-1.0665 15.3032,-12.5673 15.3032,-13.8247 0,-1.2573 -9.1373,-7.6773 -9.7365,-8.0583 -0.5992,-0.3811 -2.9339,0 -2.9339,0 0,0 4.0342,5.2189 2.515,8.7221 -1.5191,3.5031 -7.6601,6.7121 -9.208,6.7121 -1.5478,0 -48.8989,-0.0202 -50.6441,-0.6426 -1.7452,-0.6225 -9.9327,-12.093 -9.9327,-12.093 0,0 -3.6505,-0.8151 -3.6505,0 0,0.8151 9.239,18.7284 15.1893,20.884 3.8366,1.3898 50.6532,-0.7091 53.0982,-1.6996 z"
         id="path226"
         style="fill:#2f2b29;fill-opacity:1;fill-rule:evenodd;stroke:none" /><path
         d="m 218.314,373.0509 c -1.1771,-1.9217 -6.1783,-7.1625 -6.1783,-7.1625 l -50.9302,0 c 0,0 -7.8401,7.1996 -9.6218,9.1335 -2.687,2.9167 -1.8783,4.3786 -1.8783,7.1214 0,8.1397 14.6362,11.6892 34.7946,11.6892 20.1584,0 34.3732,-6.8151 34.3732,-14.9548 0,-2.0492 0.637,-3.8741 -0.5592,-5.8268 z"
         id="path228"
         style="fill:#ffffff;fill-opacity:1;fill-rule:evenodd;stroke:none" /><path
         d="M 195,391.6776 195,378 l 24.7875,0 -3.8573,10.349 L 195,391.6776 z"
         id="path230"
         style="fill:#c6cfd5;fill-opacity:1;fill-rule:evenodd;stroke:none" /><path
         d="m 184,367.15 c 8.7537,0 15.85,6.8684 15.85,15.3409 0,8.4726 -7.0963,13.5925 -15.85,13.5925 -8.7537,0 -15.85,-5.1199 -15.85,-13.5925 0,-8.4725 7.0963,-15.3409 15.85,-15.3409 z"
         id="path232"
         style="fill:#000000;fill-opacity:1;fill-rule:evenodd;stroke:none" /></g><g
       id="g234"><g
         clip-path="url(#clipPath238)"
         id="g236"><g
           transform="matrix(1,0,0,-1,168,397)"
           id="g242"><path
             d="M 16,30 C 24.83656,30 32,23.06041 32,14.5 32,5.939586 24.83656,0.7666461 16,0.7666461 7.163444,0.7666461 0,5.939586 0,14.5 0,23.06041 7.163444,30 16,30 z"
             id="path244"
             style="fill:none;stroke:#3c4e42;stroke-width:14;stroke-linecap:butt;stroke-linejoin:miter;stroke-miterlimit:10;stroke-opacity:1;stroke-dasharray:none" /></g></g></g><g
       id="g246"><path
         d="m 178.5,381 c 2.4853,0 4.5,1.7909 4.5,4 0,2.2091 -2.0147,4 -4.5,4 -2.4853,0 -4.5,-1.7909 -4.5,-4 0,-2.2091 2.0147,-4 4.5,-4 z"
         id="path248"
         style="fill:#e0dfe0;fill-opacity:1;fill-rule:evenodd;stroke:none" /><path
         d="m 155.935,395.8726 c -2.6328,-1.0665 -15.3032,-12.5673 -15.3032,-13.8247 0,-1.2573 9.1373,-7.6773 9.7365,-8.0583 0.5992,-0.3811 2.9339,0 2.9339,0 0,0 -4.0342,5.2189 -2.515,8.7221 1.5191,3.5031 7.6601,6.7121 9.208,6.7121 1.5478,0 48.8989,-0.0202 50.6441,-0.6426 1.7452,-0.6225 9.9327,-12.093 9.9327,-12.093 0,0 3.6505,-0.8151 3.6505,0 0,0.8151 -9.239,18.7284 -15.1893,20.884 -3.8366,1.3898 -50.6532,-0.7091 -53.0982,-1.6996 z"
         id="path250"
         style="fill:#2f2b29;fill-opacity:1;fill-rule:evenodd;stroke:none" /><path
         d="m 142.4446,409.3973 c 9.5041,1.4361 49.7797,4.7359 76.2565,0 15.7139,-2.8108 22.8066,-12.9372 25.9996,-15.7055 8.5731,-7.4326 1.4763,-20.031 -2.4848,-27.0507 -3.9611,-7.0196 -12.5206,-7.1278 -25.6048,-8.6208 -15.7444,-1.7965 -45.9277,-4.7756 -68.4273,-3.9083 -20.1708,0.7776 -24.3288,5.7982 -28.2456,10.5295 -3.9167,4.7313 -10.0794,25.9014 -7.3487,31.0513 2.7307,5.1499 14.7102,11.4161 29.8551,13.7045 z"
         id="path252"
         style="fill:#e0dfe0;fill-opacity:0.30450056;fill-rule:evenodd;stroke:none" /><path
         d="m 188.0372,355.2923 c -13.1922,-0.9899 -27.6525,-1.6506 -39.8534,-1.1803 -20.1708,0.7776 -24.3288,5.7982 -28.2456,10.5295 -3.9167,4.7313 -10.0794,25.9014 -7.3487,31.0513 0.0808,0.1523 0.1696,0.3056 0.2664,0.4597 l 0,-3.815 8.0338,6.8335 12.4423,5.3564 34.232,3.6772 33.8615,0.8989 -13.3883,-53.8112 z"
         id="path254"
         style="fill:#e0dfe0;fill-opacity:0.65;fill-rule:evenodd;stroke:none" /></g><g
       id="g256"><g
         clip-path="url(#clipPath260)"
         id="g258"><g
           transform="matrix(1,0,0,-1,111,412)"
           id="g264"><path
             d="m 31.44456,2.602731 c 9.50418,-1.436081 49.77973,-4.735896 76.25654,0 15.7139,2.810743 22.8066,12.937189 25.9996,15.705449 8.5731,7.43259 1.4763,20.03102 -2.4848,27.05069 -3.9611,7.01966 -12.5206,7.12784 -25.6048,8.62081 C 89.86666,55.7762 59.68345,58.75531 37.1838,57.88799 17.01302,57.11045 12.855,52.08977 8.938247,47.3585 5.021492,42.62724 -1.141172,21.45707 1.589522,16.30719 4.320216,11.15732 16.29968,4.891124 31.44456,2.602731 z"
             id="path266"
             style="fill:none;stroke:#443024;stroke-width:8;stroke-linecap:round;stroke-linejoin:miter;stroke-miterlimit:10;stroke-opacity:1;stroke-dasharray:126, 155;stroke-dashoffset:0" /></g></g></g><g
       id="g268"><g
         transform="matrix(1,0,0,-1,148,360)"
         id="g270"><path
           d="m 0.0740039,5.727245 c 0,0 20.2157561,-0.028177 40.4259961,-1.323712 C 60.59097,3.115644 80.67642,0.5603968 80.67642,0.5603968"
           id="path272"
           style="fill:none;stroke:#ffffff;stroke-width:1;stroke-linecap:round;stroke-linejoin:bevel;stroke-miterlimit:10;stroke-opacity:0.5;stroke-dasharray:none" /></g><path
         d="m 400.5554,409.3973 c -9.5041,1.4361 -49.7797,4.7359 -76.2565,0 -15.7139,-2.8108 -22.8066,-12.9372 -25.9996,-15.7055 -8.5731,-7.4326 -1.4763,-20.031 2.4848,-27.0507 3.9611,-7.0196 12.5206,-7.1278 25.6048,-8.6208 15.7444,-1.7965 45.9277,-4.7756 68.4273,-3.9083 20.1708,0.7776 24.3288,5.7982 28.2456,10.5295 3.9167,4.7313 10.0794,25.9014 7.3487,31.0513 -2.7307,5.1499 -14.7102,11.4161 -29.8551,13.7045 z"
         id="path274"
         style="fill:#e0dfe0;fill-opacity:0.30450056;fill-rule:evenodd;stroke:none" /><path
         d="m 297.7345,393.173 c -7.6848,-7.488 -0.8208,-19.673 3.0496,-26.5319 3.9611,-7.0196 12.5206,-7.1278 25.6048,-8.6208 7.4403,-0.849 18.1051,-1.962 29.6598,-2.8085 l 13.2795,54.597 -46.4544,-2.7553 -25.4144,-16.9318 0.2751,3.0513 z"
         id="path276"
         style="fill:#e0dfe0;fill-opacity:0.65;fill-rule:evenodd;stroke:none" /></g><g
       id="g278"><g
         clip-path="url(#clipPath282)"
         id="g280"><g
           transform="matrix(-1,0,0,-1,432,412)"
           id="g286"><path
             d="m 31.44456,2.602731 c 9.50418,-1.436081 49.77973,-4.735896 76.25654,0 15.7139,2.810743 22.8066,12.937189 25.9996,15.705449 8.5731,7.43259 1.4763,20.03102 -2.4848,27.05069 -3.9611,7.01966 -12.5206,7.12784 -25.6048,8.62081 C 89.86666,55.7762 59.68345,58.75531 37.1838,57.88799 17.01302,57.11045 12.855,52.08977 8.938247,47.3585 5.021492,42.62724 -1.141172,21.45707 1.589522,16.30719 4.320216,11.15732 16.29968,4.891124 31.44456,2.602731 z"
             id="path288"
             style="fill:none;stroke:#443024;stroke-width:8;stroke-linecap:round;stroke-linejoin:miter;stroke-miterlimit:10;stroke-opacity:1;stroke-dasharray:126, 155;stroke-dashoffset:0" /></g></g></g><g
       id="g290"><g
         transform="matrix(-1,0,0,-1,404,359)"
         id="g292"><path
           d="m 83.22712,0.2703652 c 0,0 -25.41709,2.6101228 -50.74598,3.7613328 -16.04947,0.729456 -32.0107557,0 -32.0107557,0"
           id="path294"
           style="fill:none;stroke:#ffffff;stroke-width:1;stroke-linecap:round;stroke-linejoin:miter;stroke-miterlimit:10;stroke-opacity:0.5;stroke-dasharray:none" /></g><g
         transform="matrix(1,0,0,-1,245,398)"
         id="g296"><path
           d="m 0.5131361,6.340989 c 0,0 13.5123639,-5.8723263 25.4868639,-5.801888 12.55417,0.0738482 26.64158,5.801888 26.64158,5.801888"
           id="path298"
           style="fill:none;stroke:#443024;stroke-width:4;stroke-linecap:butt;stroke-linejoin:miter;stroke-miterlimit:10;stroke-opacity:1;stroke-dasharray:none" /></g><g
         transform="matrix(1,0,0,-1,82,391)"
         id="g300"><path
           d="M 31.28727,0.3309896 0.2545163,1.705472"
           id="path302"
           style="fill:none;stroke:#443024;stroke-width:6;stroke-linecap:butt;stroke-linejoin:round;stroke-miterlimit:10;stroke-opacity:1;stroke-dasharray:none" /></g><g
         transform="matrix(-1,0,0,-1,467,390)"
         id="g304"><path
           d="M 36.17591,0.3309896 0.2942845,1.705472"
           id="path306"
           style="fill:none;stroke:#443024;stroke-width:6;stroke-linecap:butt;stroke-linejoin:round;stroke-miterlimit:10;stroke-opacity:1;stroke-dasharray:none" /></g></g></g></svg>
